<?xml version="1.0" encoding="UTF-8"?>
<svg id="_レイヤー_2" data-name="レイヤー 2" xmlns="http://www.w3.org/2000/svg" viewBox="0 0 510 699.97">
  <defs>
    <style>
      .cls-1 {
        fill: #ffc24a;
      }

      .cls-1, .cls-2, .cls-3, .cls-4, .cls-5, .cls-6, .cls-7 {
        stroke-width: 0px;
      }

      .cls-2 {
        fill: #fde068;
      }

      .cls-3 {
        fill: #ffa712;
      }

      .cls-4 {
        fill: #ffa50e;
      }

      .cls-5 {
        fill: #f6820c;
      }

      .cls-6 {
        fill: #f4bd62;
      }

      .cls-7 {
        fill: #fcca3f;
      }
    </style>
  </defs>
  <g id="_レイヤー_1-2" data-name="レイヤー 1">
    <path class="cls-1" d="M0,564.99l4.25-5.92L204.75,178.71l.43-4.03L116.8,8.69c-4.26-7.99-14.19-11.02-22.19-6.76-4.55,2.42-7.69,6.84-8.49,11.93L0,564.99Z"/>
    <path class="cls-3" d="M2.5,560.49l3.2-6.25L204.12,177.84,115.97,11.19c-3.71-7.41-12.73-10.4-20.13-6.68-4.57,2.29-7.66,6.75-8.19,11.83L2.5,560.49Z"/>
    <path class="cls-6" d="M269.6,300.24l65.8-67.5-65.82-125.53c-4.42-8.25-14.7-11.35-22.95-6.93-2.94,1.58-5.35,3.99-6.93,6.93l-35.18,67.05v5.73l65.07,120.25Z"/>
    <path class="cls-4" d="M268.43,297.49l63.98-65.5-63.98-122c-3-7.56-11.56-11.26-19.12-8.26-3.36,1.33-6.11,3.85-7.73,7.09l-35.35,68.22-1.05,3.47,63.25,116.97Z"/>
    <polygon class="cls-5" points=".05 565.01 1.97 563.06 8.95 560.24 265.45 304.69 268.7 295.84 204.73 173.89 .05 565.01"/>
    <path class="cls-2" d="M277.8,693.89l232.2-129.48-66.35-408.27c-1.43-8.65-9.6-14.5-18.25-13.07-3.27.54-6.28,2.09-8.62,4.42L0,564.99l230.82,128.88c14.59,8.14,32.36,8.14,46.95,0"/>
    <path class="cls-7" d="M507.87,563.34l-65.8-405.2c-.32-7.68-6.82-13.65-14.5-13.33-3.69.16-7.18,1.78-9.68,4.5L2.5,564.21l228.28,127.5c14.47,8.08,32.1,8.08,46.58,0l230.52-128.38Z"/>
  </g>
</svg>